PathFileType  4	(X/Y/Z) C:\Users\wagnerel85475\Documents\Thesis\opencap-core\Data\3375ffbc-daeb-4a43-b4f7-ac9899cd4c71\MarkerData\PreAugmentation
DataRate	CameraRate	NumFrames	NumMarkers	Units	OrigDataRate	OrigDataStartFrame	OrigNumFrames
60.0	60.0	11	20	m	60.0	303	403
Frame#	Time	Neck			RShoulder			RElbow			RWrist			LShoulder			LElbow			LWrist			midHip			RHip			RKnee			RAnkle			LHip			LKnee			LAnkle			LBigToe			LSmallToe			LHeel			RBigToe			RSmallToe			RHeel			
		X1	Y1	Z1	X2	Y2	Z2	X3	Y3	Z3	X4	Y4	Z4	X5	Y5	Z5	X6	Y6	Z6	X7	Y7	Z7	X8	Y8	Z8	X9	Y9	Z9	X10	Y10	Z10	X11	Y11	Z11	X12	Y12	Z12	X13	Y13	Z13	X14	Y14	Z14	X15	Y15	Z15	X16	Y16	Z16	X17	Y17	Z17	X18	Y18	Z18	X19	Y19	Z19	X20	Y20	Z20	

303	5.0333333	1.0661600	1.3572900	-0.0846300	1.0728400	1.3558100	0.0935900	0.9492500	1.0660700	0.2142300	0.9748800	0.7746900	0.2772100	1.0909200	1.3545000	-0.2854200	0.9567700	1.0625100	-0.3801800	1.0220800	0.7619900	-0.4124700	0.9869600	0.8040200	-0.0925000	1.0033400	0.8104600	0.0288500	0.9806600	0.3340000	0.0611500	0.8868900	-0.1938700	0.1265900	0.9943500	0.8007800	-0.2156700	0.9626100	0.3273400	-0.2337400	0.8911700	-0.1668600	-0.2781100	1.0966300	-0.2172800	-0.3716300	1.0303100	-0.2215000	-0.3975900	0.8493600	-0.2298700	-0.2501400	1.0789500	-0.2289800	0.2438300	1.0418400	-0.2242600	0.2576100	0.8823000	-0.2271000	0.1032500
304	5.0500000	1.0590200	1.3601300	-0.0877300	1.0644800	1.3596000	0.0900000	0.9541900	1.0663300	0.2100500	0.9664600	0.7769500	0.2744300	1.0903400	1.3541300	-0.2853800	0.9564900	1.0618600	-0.3801100	1.0070800	0.7601800	-0.4129700	0.9951500	0.8046100	-0.0895700	0.9975800	0.8093300	0.0333800	0.9801400	0.3335200	0.0611500	0.8865600	-0.1941700	0.1266500	0.9947100	0.8033400	-0.2161900	0.9635600	0.3250200	-0.2332700	0.8908000	-0.1675200	-0.2783300	1.0957400	-0.2176200	-0.3716000	1.0299000	-0.2219900	-0.3974100	0.8492500	-0.2300600	-0.2502900	1.0855600	-0.2264700	0.2398700	1.0430700	-0.2238400	0.2574500	0.8827000	-0.2272200	0.1035300
305	5.0666667	1.0498800	1.3606000	-0.0914500	1.0573200	1.3597700	0.0943100	0.9469900	1.0688300	0.2067000	0.9563700	0.7753900	0.2713800	1.0830100	1.3546100	-0.2892600	0.9482600	1.0618600	-0.3764500	0.9904900	0.7577500	-0.4206900	0.9867300	0.8037800	-0.0923900	0.9955800	0.8062500	0.0333500	0.9803000	0.3337600	0.0609700	0.8868500	-0.1938000	0.1266200	0.9865100	0.7997200	-0.2119200	0.9461300	0.3198100	-0.2340500	0.8910900	-0.1668100	-0.2781200	1.0967400	-0.2173100	-0.3715800	1.0304900	-0.2216900	-0.3974900	0.8492600	-0.2298000	-0.2501800	1.0856800	-0.2263400	0.2395600	1.0484100	-0.2215400	0.2533600	0.8744600	-0.2299900	0.1075600
306	5.0833333	1.0437800	1.3604500	-0.0875100	1.0576400	1.3597200	0.0939000	0.9542500	1.0702000	0.2018300	0.9477800	0.7744600	0.2688100	1.0826100	1.3573600	-0.2891300	0.9480300	1.0582200	-0.3762800	0.9828800	0.7571700	-0.4173000	0.9797400	0.7986600	-0.0890800	0.9909100	0.8044700	0.0372300	0.9717700	0.3314400	0.0580800	0.8865400	-0.1871800	0.1266100	0.9866600	0.7983600	-0.2125000	0.9469100	0.3245000	-0.2336300	0.8911700	-0.1640500	-0.2777800	1.0959900	-0.2176200	-0.3715200	1.0302000	-0.2219800	-0.3973100	0.8491000	-0.2299400	-0.2503200	1.0926500	-0.2237300	0.2354500	1.0502900	-0.2181700	0.2524400	0.8748500	-0.2235500	0.1078200
307	5.1000000	1.0427600	1.3607600	-0.0877800	1.0486600	1.3600600	0.0911900	0.9457100	1.0745100	0.1988400	0.9184400	0.7708900	0.2600000	1.0754000	1.3548800	-0.2857800	0.9402900	1.0513000	-0.3727800	0.9584000	0.7534400	-0.4218300	0.9878200	0.8066600	-0.0852700	0.9965900	0.8093400	0.0331200	0.9719600	0.3319100	0.0579500	0.8865400	-0.1838100	0.1259800	0.9865600	0.8054000	-0.2120900	0.9458300	0.3266600	-0.2339700	0.8915800	-0.1633400	-0.2775600	1.0968400	-0.2173800	-0.3715600	1.0300400	-0.2188600	-0.3981000	0.8493800	-0.2297600	-0.2501500	1.0995000	-0.2208300	0.2309700	1.0556800	-0.2159900	0.2484800	0.8742700	-0.2232100	0.1075600
308	5.1166667	1.0434600	1.3605700	-0.0875100	1.0489400	1.3602500	0.0908500	0.9416900	1.0782100	0.1917200	0.9002100	0.7686800	0.2544300	1.0599500	1.3578800	-0.2857400	0.9402500	1.0504600	-0.3727000	0.9418400	0.7550500	-0.4147200	0.9957200	0.8005600	-0.0895700	1.0067700	0.8064500	0.0362700	0.9714500	0.3315300	0.0579600	0.8862100	-0.1811500	0.1254000	0.9949500	0.7994700	-0.2160900	0.9389700	0.3222400	-0.2297100	0.8912300	-0.1640500	-0.2777800	1.0960600	-0.2176600	-0.3715300	1.0303000	-0.2220300	-0.3973000	0.8491200	-0.2299400	-0.2503300	1.1075500	-0.2177700	0.2337400	1.0568900	-0.2156100	0.2483600	0.8747500	-0.2233500	0.1077900
309	5.1333333	1.0343200	1.3610200	-0.0912900	1.0483100	1.3631000	0.0911800	0.9318600	1.0783200	0.1809300	0.8894300	0.7709700	0.2513400	1.0600800	1.3582100	-0.2858900	0.9402400	1.0473500	-0.3726500	0.9250800	0.7525800	-0.4151000	0.9956800	0.8075800	-0.0891300	1.0121700	0.8112000	0.0322000	0.9720800	0.3347600	0.0573800	0.8864000	-0.1838700	0.1259600	0.9946500	0.8064000	-0.2157700	0.9306000	0.3203000	-0.2250100	0.8915800	-0.1632900	-0.2775500	1.0967700	-0.2173800	-0.3715500	1.0307000	-0.2217900	-0.3974300	0.8493900	-0.2297200	-0.2501700	1.1077300	-0.2176200	0.2336000	1.0643700	-0.2126800	0.2510700	0.8740900	-0.2233400	0.1075600
310	5.1500000	1.0268800	1.3610300	-0.0945100	1.0405000	1.3632600	0.0878700	0.9290700	1.0811900	0.1733900	0.8900100	0.7741900	0.2511800	1.0443000	1.3582100	-0.2860300	0.9400900	1.0466900	-0.3726300	0.9168800	0.7518900	-0.4117200	0.9957700	0.8074800	-0.0895400	1.0133000	0.8114000	0.0325300	0.9718100	0.3348200	0.0573700	0.8861900	-0.1812900	0.1254000	0.9950600	0.8090600	-0.2163300	0.9233100	0.3191300	-0.2211800	0.8912200	-0.1639300	-0.2777800	1.0958900	-0.2177300	-0.3715600	1.0302700	-0.2221800	-0.3973300	0.8498700	-0.2268600	-0.2497100	1.1076000	-0.2177300	0.2338500	1.0590300	-0.2148700	0.2550300	0.8749100	-0.2274500	0.1072000
311	5.1666667	1.0257600	1.3612300	-0.0947500	1.0397700	1.3633100	0.0882400	0.9211100	1.0810900	0.1702300	0.8871400	0.7735100	0.2437500	1.0369100	1.3586500	-0.2898300	0.9316500	1.0438000	-0.3688500	0.9078400	0.7502900	-0.4080400	0.9959500	0.8078700	-0.0891700	1.0124400	0.8114200	0.0322500	0.9719000	0.3352000	0.0572500	0.8864300	-0.1838800	0.1259700	1.0025200	0.8102900	-0.2125900	0.9224500	0.3221900	-0.2207100	0.8915700	-0.1632300	-0.2775400	1.0966800	-0.2174300	-0.3715800	1.0307600	-0.2219200	-0.3974300	0.8501600	-0.2267400	-0.2495400	1.1010300	-0.2202500	0.2378400	1.0574800	-0.2181100	0.2558900	0.8743400	-0.2273300	0.1069300
312	5.1833333	1.0264900	1.3610900	-0.0945700	1.0329500	1.3646500	0.0918000	0.9195500	1.0805300	0.1702400	0.8874000	0.7739600	0.2438000	1.0289900	1.3585300	-0.2862000	0.9235100	1.0457800	-0.3653700	0.9084500	0.7506900	-0.4081100	1.0038200	0.8113500	-0.0936800	1.0134900	0.8116800	0.0324900	0.9711500	0.3383500	0.0577500	0.8861400	-0.1842400	0.1260300	1.0030600	0.8101500	-0.2129000	0.9232600	0.3230000	-0.2207500	0.8912400	-0.1639300	-0.2777800	1.0958500	-0.2176900	-0.3715600	1.0298800	-0.2256500	-0.3979100	0.8498800	-0.2267500	-0.2497100	1.1008900	-0.2204000	0.2380700	1.0586100	-0.2177100	0.2557600	0.8749500	-0.2274400	0.1071900
313	5.2000000	1.0254400	1.3612800	-0.0947400	1.0324300	1.3674100	0.0922700	0.9115400	1.0774400	0.1671800	0.8775500	0.7725500	0.2406300	1.0290600	1.3587900	-0.2861900	0.9063700	1.0523700	-0.3578400	0.8993700	0.7523300	-0.4047100	1.0034700	0.8088900	-0.0930500	1.0125800	0.8117900	0.0322400	0.9629900	0.3366200	0.0545900	0.8791000	-0.1866700	0.1300800	1.0101700	0.8112300	-0.2162100	0.9130200	0.3224200	-0.2182400	0.8914400	-0.1632200	-0.2775600	1.0964700	-0.2173500	-0.3715500	1.0302500	-0.2253500	-0.3980300	0.8493500	-0.2229900	-0.2502500	1.1009900	-0.2203000	0.2378700	1.0575400	-0.2181400	0.2558900	0.8742600	-0.2274200	0.1069700
